{"title":"Justin Bieber - Boyfriend HD 1080p 2012","uid":7245997,"size":123443955,"categoryP":"video","categoryS":"music_videos","magnet":"?xt=urn:btih:b43ef8f66e09a6296f3c480a06ab646190110e8b&amp;dn=Justin+Bieber+-+Boyfriend+HD+1080p+2012&amp;tr=udp%3A%2F%2Ftracker.openbittorrent.com%3A80&amp;tr=udp%3A%2F%2Fopen.demonii.com%3A1337&amp;tr=udp%3A%2F%2Ftracker.coppersurfer.tk%3A6969&amp;tr=udp%3A%2F%2Fexodus.desync.com%3A6969","seeders":1,"leechers":0,"uploader":"pirate0610","files":-1,"time":1336296258,"description":"Justin Bieber - Boyfriend HD 1080p 2012\n\n\n\nVideo\nID                               : 1\nFormat                           : AVC\nFormat/Info                      : Advanced Video Codec\nFormat profile                   : &lt;a class=&quot;__cf_email__&quot; href=&quot;/cdn-cgi/l/email-protection&quot; data-cfemail=&quot;ace4c5cbc4ece098829c&quot;&gt;[email&amp;#160;protected]&lt;/a&gt;&lt;script cf-hash='f9e31' type=&quot;text/javascript&quot;&gt;\n/* &lt;![CDATA[ */!function(){try{var t=&quot;currentScript&quot;in document?document.currentScript:function(){for(var t=document.getElementsByTagName(&quot;script&quot;),e=t.length;e--;)if(t[e].getAttribute(&quot;cf-hash&quot;))return t[e]}();if(t&amp;&amp;t.previousSibling){var e,r,n,i,c=t.previousSibling,a=c.getAttribute(&quot;data-cfemail&quot;);if(a){for(e=&quot;&quot;,r=parseInt(a.substr(0,2),16),n=2;a.length-n;n+=2)i=parseInt(a.substr(n,2),16)^r,e+=String.fromCharCode(i);e=document.createTextNode(e),c.parentNode.replaceChild(e,c)}}}catch(u){}}();/* ]]&gt; */&lt;/script&gt;\nFormat settings, CABAC           : Yes\nFormat settings, ReFrames        : 1 frame\nCodec ID                         : avc1\nCodec ID/Info                    : Advanced Video Coding\nDuration                         : 3mn 30s\nBit rate                         : 4 543 Kbps\nMaximum bit rate                 : 8 185 Kbps\nWidth                            : 1 920 pixels\nHeight                           : 1 080 pixels\nDisplay aspect ratio             : 16:9\nFrame rate mode                  : Constant\nFrame rate                       : 23.976 fps\nColor space                      : YUV\nChroma subsampling               : 4:2:0\nBit depth                        : 8 bits\nScan type                        : Progressive\nBits/(Pixel*Frame)               : 0.091\nStream size                      : 114 MiB (97%)\n\nAudio\nID                               : 2\nFormat                           : AAC\nFormat/Info                      : Advanced Audio Codec\nFormat version                   : Version 4\nFormat profile                   : LC\nFormat settings, SBR             : No\nCodec ID                         : 40\nDuration                         : 3mn 30s\nBit rate mode                    : Variable\nBit rate                         : 144 Kbps\nMaximum bit rate                 : 222 Kbps\nChannel(s)                       : 2 channels\nChannel positions                : Front: L R\nSampling rate                    : 44.1 KHz\nStream size                      : 3.67 MiB (3%)\n\n\nScreens:\n &lt;a href=&quot;\nhttp://www.shotpix.com/images/49792446079957569893.jpg&quot; rel=&quot;nofollow&quot; target=&quot;_NEW&quot;&gt;\nhttp://www.shotpix.com/images/49792446079957569893.jpg&lt;/a&gt; &lt;a href=&quot;\nhttp://www.shotpix.com/images/16357858196058346344.jpg&quot; rel=&quot;nofollow&quot; target=&quot;_NEW&quot;&gt;\nhttp://www.shotpix.com/images/16357858196058346344.jpg&lt;/a&gt; &lt;a href=&quot;\nhttp://www.shotpix.com/images/12297781148483628476.jpg&quot; rel=&quot;nofollow&quot; target=&quot;_NEW&quot;&gt;\nhttp://www.shotpix.com/images/12297781148483628476.jpg&lt;/a&gt; &lt;a href=&quot;\nhttp://www.shotpix.com/images/94063511496446675713.jpg&quot; rel=&quot;nofollow&quot; target=&quot;_NEW&quot;&gt;\nhttp://www.shotpix.com/images/94063511496446675713.jpg&lt;/a&gt; &lt;a href=&quot;\nhttp://www.shotpix.com/images/24118450805313917529.jpg&quot; rel=&quot;nofollow&quot; target=&quot;_NEW&quot;&gt;\nhttp://www.shotpix.com/images/24118450805313917529.jpg&lt;/a&gt;\n\n\n\n","torrent":{"xt":"urn:btih:b43ef8f66e09a6296f3c480a06ab646190110e8b","amp;dn":"Justin+Bieber+-+Boyfriend+HD+1080p+2012","amp;tr":["udp%3A%2F%2Ftracker.openbittorrent.com%3A80","udp%3A%2F%2Fopen.demonii.com%3A1337","udp%3A%2F%2Ftracker.coppersurfer.tk%3A6969","udp%3A%2F%2Fexodus.desync.com%3A6969"],"infoHash":"b43ef8f66e09a6296f3c480a06ab646190110e8b","infoHashBuffer":{"type":"Buffer","data":[180,62,248,246,110,9,166,41,111,60,72,10,6,171,100,97,144,17,14,139]},"announce":[],"urlList":[]}}